<?xml version="1.0" standalone="no"?>
<!DOCTYPE svg PUBLIC "-//W3C//DTD SVG 20010904//EN"
 "http://www.w3.org/TR/2001/REC-SVG-20010904/DTD/svg10.dtd">
<svg version="1.0" xmlns="http://www.w3.org/2000/svg"
 width="1200.000000pt" height="1200.000000pt" viewBox="0 0 1200.000000 1200.000000"
 preserveAspectRatio="xMidYMid meet">

<g transform="translate(0.000000,1200.000000) scale(0.100000,-0.100000)"
fill="#000000" stroke="none">
<path d="M3242 11209 c-231 -26 -385 -138 -724 -530 -117 -136 -295 -364 -653
-839 -484 -642 -652 -851 -883 -1091 -165 -172 -375 -347 -524 -435 l-43 -26
100 6 c171 9 363 69 605 190 221 111 491 288 706 463 53 43 107 86 120 96 l24
19 0 -39 c-1 -221 -322 -715 -851 -1308 -280 -314 -721 -745 -902 -880 l-62
-47 50 7 c359 47 770 220 1220 513 72 46 159 106 195 132 36 26 70 50 77 54
26 14 -108 -277 -227 -495 -356 -651 -859 -1287 -1347 -1703 -51 -43 -93 -80
-93 -82 0 -8 157 42 255 82 460 188 1061 627 1653 1206 83 82 152 144 152 138
0 -36 -116 -315 -210 -505 -153 -308 -333 -593 -531 -840 -75 -94 -75 -103 5
-92 235 32 632 386 1185 1052 128 154 370 463 407 520 16 24 18 25 24 9 10
-29 -6 -181 -31 -285 -75 -324 -301 -814 -518 -1127 -28 -41 -51 -76 -51 -79
0 -8 148 74 228 128 429 286 916 871 1288 1547 71 129 81 128 70 -7 -29 -344
-136 -647 -333 -950 -30 -46 -52 -86 -48 -89 11 -11 129 18 194 48 333 156
719 735 831 1246 10 47 20 88 23 90 6 6 69 -143 101 -236 49 -148 68 -272 63
-415 -6 -203 -33 -257 -193 -396 -251 -218 -385 -453 -579 -1019 -122 -353
-171 -440 -249 -440 -71 0 -86 54 -86 310 0 344 -23 489 -83 533 -36 28 -138
27 -222 -1 -33 -11 -86 -25 -117 -32 -111 -22 -199 -109 -183 -181 l7 -31 30
36 c21 26 44 40 84 52 78 22 94 14 94 -47 0 -104 45 -148 172 -171 79 -14 88
-25 88 -107 0 -108 -46 -341 -68 -341 -3 0 -22 11 -42 25 -48 33 -117 112
-275 313 -77 99 -138 167 -154 174 -38 14 -99 -7 -138 -49 -36 -37 -66 -124
-61 -172 2 -25 -9 -41 -65 -100 -37 -38 -74 -85 -82 -105 -21 -50 -18 -113 7
-166 l21 -45 8 46 c4 25 15 61 24 80 20 40 94 119 111 119 7 0 41 -29 76 -63
80 -80 102 -87 166 -47 95 58 181 61 217 7 24 -38 39 -147 22 -164 -10 -10
-75 -16 -258 -23 -351 -13 -352 -13 -347 -192 3 -82 0 -109 -10 -113 -7 -2
-22 -26 -34 -51 -17 -39 -20 -62 -16 -133 6 -114 40 -181 112 -218 28 -15 29
-15 22 9 -11 35 -19 192 -12 230 11 58 17 61 71 37 58 -26 132 -22 172 8 21
15 27 28 28 64 5 120 102 201 201 169 51 -17 155 -125 193 -201 57 -114 33
-198 -89 -312 -39 -35 -70 -72 -70 -81 0 -25 27 -86 55 -122 14 -18 25 -37 25
-43 0 -6 -14 -26 -32 -46 -36 -42 -111 -83 -172 -94 l-41 -8 30 -13 c17 -8 59
-14 95 -14 75 0 125 21 179 78 26 27 43 36 67 36 47 0 150 34 194 65 22 15 48
46 59 69 l20 41 -26 85 c-24 76 -27 101 -27 240 0 142 2 162 27 237 60 181
210 341 482 515 39 24 141 89 229 142 311 192 453 306 549 441 l49 70 -4 -65
c-15 -198 -191 -556 -618 -1260 -497 -819 -572 -949 -684 -1182 -71 -147 -124
-283 -114 -293 14 -15 530 433 1107 961 183 167 179 166 180 59 2 -184 -50
-400 -220 -899 -117 -344 -178 -554 -193 -659 -5 -35 -4 -37 17 -26 95 50 251
215 562 594 226 276 350 413 451 499 70 59 158 115 168 105 2 -2 16 -110 31
-239 120 -1081 240 -1820 294 -1820 5 0 25 38 44 84 128 305 253 884 347 1601
17 132 34 260 38 284 l7 45 172 -180 c182 -189 533 -526 693 -664 106 -92 259
-210 271 -210 18 0 -27 178 -78 304 -19 48 -80 185 -134 303 -177 385 -233
550 -245 726 -11 162 -27 169 291 -121 491 -447 981 -870 994 -857 9 10 -46
151 -119 301 -100 208 -230 435 -559 974 -145 239 -316 525 -379 635 -219 381
-348 678 -359 825 l-5 65 42 -60 c105 -150 236 -254 620 -490 421 -258 576
-407 647 -618 25 -76 27 -94 27 -237 -1 -138 -4 -164 -27 -240 -25 -84 -25
-86 -8 -125 29 -66 120 -117 234 -131 42 -5 60 -14 92 -44 61 -58 100 -74 175
-74 36 0 79 6 95 14 l30 13 -41 8 c-61 11 -136 52 -172 94 -18 20 -32 40 -32
46 0 6 11 25 25 43 28 36 55 97 55 122 0 9 -31 46 -70 82 -149 138 -157 242
-32 398 92 114 181 150 252 102 46 -31 82 -98 85 -156 1 -37 7 -50 28 -65 40
-30 114 -34 172 -8 54 24 60 21 71 -37 7 -38 -1 -195 -12 -230 -7 -24 -6 -24
22 -9 72 37 106 104 112 218 4 71 1 94 -16 133 -12 25 -27 49 -34 51 -10 4
-13 31 -10 113 5 179 4 180 -348 193 -181 6 -248 12 -258 22 -16 17 -1 127 23
164 36 54 122 51 218 -8 l50 -31 39 18 c22 10 61 42 88 71 27 29 55 53 62 53
19 0 92 -77 113 -119 9 -19 20 -55 24 -80 l8 -46 21 45 c25 53 28 116 7 166
-8 20 -45 67 -82 105 -56 58 -67 75 -65 99 9 80 -46 181 -114 212 -73 32 -93
22 -185 -95 -228 -290 -335 -407 -370 -407 -24 0 -69 224 -69 345 0 74 12 91
68 100 20 3 62 13 92 23 69 21 100 68 100 150 0 63 9 69 81 52 37 -9 63 -24
90 -51 l38 -38 6 30 c16 70 -73 157 -183 179 -31 7 -84 21 -117 32 -83 28
-186 29 -222 2 -60 -45 -83 -189 -83 -534 0 -256 -15 -310 -86 -310 -78 0
-129 89 -249 440 -193 564 -329 803 -577 1017 -167 144 -193 202 -193 433 0
155 4 185 47 335 22 80 108 288 115 281 3 -2 13 -43 23 -90 111 -507 488
-1076 822 -1241 68 -33 191 -65 203 -53 3 3 -22 48 -55 99 -131 201 -242 463
-289 680 -24 115 -46 319 -36 356 5 23 12 15 69 -88 374 -679 849 -1251 1279
-1540 107 -72 237 -146 237 -135 0 2 -29 46 -64 97 -214 316 -431 790 -505
1109 -26 108 -42 254 -32 281 7 20 8 20 26 -7 33 -52 295 -385 419 -534 539
-651 939 -1005 1172 -1037 76 -10 81 0 31 59 -192 228 -421 590 -577 910 -79
165 -190 437 -190 469 0 6 80 -66 178 -162 571 -561 1173 -998 1627 -1182 119
-49 219 -81 236 -75 6 2 -29 37 -78 78 -200 170 -479 459 -669 695 -365 453
-719 1028 -888 1444 -23 57 -24 62 -6 50 556 -394 1005 -612 1398 -679 63 -11
118 -20 124 -20 5 0 -17 21 -51 46 -205 154 -656 600 -980 969 -318 363 -596
750 -697 972 -46 99 -76 204 -72 247 l3 36 105 -86 c258 -210 527 -385 775
-505 245 -119 452 -179 609 -179 l61 0 -41 23 c-142 82 -302 213 -489 401
-245 247 -403 441 -924 1131 -472 627 -588 772 -796 999 -249 273 -421 368
-660 367 -102 0 -179 -18 -263 -60 -231 -117 -311 -370 -208 -661 92 -258 137
-404 162 -525 24 -113 27 -153 27 -305 0 -156 -2 -185 -25 -271 -94 -348 -352
-573 -763 -665 -106 -24 -372 -30 -464 -10 -116 25 -203 85 -166 116 22 18
129 6 235 -25 47 -13 88 -25 92 -25 4 0 -50 80 -119 178 -156 218 -363 524
-363 535 0 15 103 -4 158 -29 l53 -23 -7 22 c-41 136 -411 830 -573 1077 -31
47 -57 88 -59 91 -1 3 40 -2 93 -11 52 -10 95 -14 95 -10 0 16 -170 179 -248
238 -409 307 -1062 491 -1389 390 -73 -22 -130 -70 -139 -118 -7 -31 -8 -32
-49 -25 -97 14 -285 21 -373 14 -176 -15 -290 -75 -328 -174 -23 -61 -15 -188
16 -270 28 -72 120 -169 192 -203 61 -28 70 -28 62 2 -16 66 58 166 156 210
203 91 427 -2 590 -245 33 -50 60 -94 60 -99 0 -18 -69 -21 -358 -18 -235 2
-292 0 -292 -10 0 -26 109 -61 330 -107 124 -26 236 -52 250 -58 83 -40 26
-404 -102 -650 -88 -169 -238 -345 -388 -455 -41 -30 -79 -58 -83 -62 -4 -4
23 0 60 7 43 9 106 13 173 11 118 -4 172 -24 210 -77 l21 -30 -23 -15 c-92
-59 -393 -66 -613 -14 -678 159 -915 721 -640 1518 24 69 60 172 81 230 82
230 52 430 -85 570 -113 116 -282 169 -469 149z m2208 -173 c221 -34 503 -159
751 -333 43 -31 78 -58 76 -60 -2 -2 -76 29 -163 68 -502 224 -711 288 -902
276 -64 -4 -95 -11 -135 -32 l-52 -27 25 27 c34 36 93 66 160 81 74 17 128 17
240 0z m-1977 -28 c67 -32 147 -109 194 -189 54 -91 49 -97 -14 -18 -66 82
-158 151 -226 170 -86 23 -210 -7 -316 -77 -146 -96 -270 -219 -598 -594 -94
-107 -190 -213 -213 -235 l-43 -40 58 85 c395 572 649 831 893 911 83 27 189
22 265 -13z m5312 -114 c89 -22 288 -124 390 -201 175 -132 353 -320 504 -532
72 -99 221 -346 221 -364 0 -5 -47 52 -103 127 -292 383 -583 669 -835 818
-274 164 -510 165 -567 3 -13 -36 -14 -37 -15 -12 0 42 24 90 61 121 77 65
188 78 344 40z m-3570 -2001 c-102 -229 -161 -581 -172 -1018 -28 -1154 317
-2438 879 -3277 43 -65 76 -118 74 -118 -2 0 -45 54 -95 119 -567 744 -923
1907 -924 3016 0 461 48 812 154 1111 30 86 94 224 104 224 3 0 -7 -25 -20
-57z"/>
</g>
</svg>
